<?xml version="1.0" standalone="no"?>
<!DOCTYPE svg PUBLIC "-//W3C//DTD SVG 20010904//EN"
 "http://www.w3.org/TR/2001/REC-SVG-20010904/DTD/svg10.dtd">
<svg version="1.0" xmlns="http://www.w3.org/2000/svg"
 width="640.000000pt" height="220.000000pt" viewBox="0 0 640.000000 220.000000"
 preserveAspectRatio="xMidYMid meet">

<g transform="translate(0.000000,220.000000) scale(0.100000,-0.100000)"
fill="#000000" stroke="none">
<path d="M5043 2166 c-70 -17 -155 -60 -173 -88 -10 -15 -17 -59 -20 -133 l-5
-110 -50 3 c-35 3 -68 14 -115 42 l-65 38 -6 -51 c-9 -78 -16 -89 -53 -81 -50
10 -127 59 -181 113 -27 28 -52 51 -55 51 -4 0 -25 -37 -48 -83 -22 -46 -50
-91 -61 -101 -19 -17 -21 -17 -54 9 -19 15 -51 56 -73 90 -36 59 -41 63 -69
58 -49 -9 -87 -28 -145 -72 -76 -57 -99 -62 -125 -25 -43 62 -111 121 -160
140 -27 10 -74 33 -104 51 -90 54 -170 56 -267 7 l-53 -27 -50 21 c-76 33
-165 32 -231 -4 -88 -48 -145 -124 -176 -237 l-15 -57 -62 6 c-81 8 -157 -20
-221 -80 l-47 -43 -94 -5 -95 -5 -40 53 c-22 30 -45 54 -50 54 -5 0 -16 -13
-24 -28 -14 -26 -100 -102 -117 -102 -4 0 -10 -15 -14 -32 -14 -67 -85 -192
-131 -230 -25 -21 -52 -38 -60 -38 -8 0 -34 42 -61 100 -26 55 -50 100 -54
100 -4 0 -17 -13 -29 -30 -48 -67 -203 -153 -246 -136 -8 3 -14 18 -14 33 0
15 -3 45 -6 66 -7 38 -7 38 -28 19 -42 -38 -77 -55 -142 -67 l-67 -12 5 139
c5 138 5 139 -18 155 -13 8 -53 18 -89 21 -59 4 -71 2 -130 -27 -68 -34 -122
-87 -151 -150 -9 -20 -18 -37 -19 -39 -2 -2 -23 7 -47 19 -64 34 -165 32 -234
-3 -48 -25 -111 -84 -133 -126 -9 -17 -18 -19 -73 -15 -55 4 -68 2 -98 -19
-123 -84 -130 -276 -13 -365 30 -23 46 -28 92 -27 31 0 64 3 73 5 12 3 29 -15
60 -65 51 -81 101 -120 183 -142 61 -16 124 -10 193 17 20 8 30 4 58 -21 35
-31 50 -36 119 -43 22 -3 68 -10 102 -18 49 -10 74 -10 114 -1 46 11 53 10 80
-9 61 -43 148 -37 203 15 l35 32 28 -37 c35 -47 113 -105 182 -136 66 -30 202
-63 258 -63 36 0 44 -4 62 -33 39 -64 134 -94 207 -67 14 6 39 24 56 42 l29
31 27 -26 c15 -14 35 -48 45 -76 32 -90 123 -144 207 -121 21 6 42 15 45 21 4
6 25 -7 50 -30 49 -45 135 -76 193 -68 28 3 56 -5 117 -34 44 -20 116 -45 160
-55 108 -25 292 -25 400 0 100 22 226 82 286 134 54 48 59 50 127 33 30 -7 73
-11 97 -8 34 3 48 0 61 -14 34 -38 154 -53 254 -31 67 15 108 51 117 105 4 30
9 37 22 32 94 -39 165 -20 221 57 29 40 33 41 90 45 33 1 74 9 92 16 30 13 36
12 71 -11 82 -54 191 -25 243 64 24 41 29 44 68 44 23 0 47 -5 53 -11 19 -19
86 -29 128 -18 37 10 97 61 120 102 9 17 12 17 50 1 30 -12 60 -15 120 -12 95
5 144 27 199 88 34 38 41 41 71 36 62 -12 162 -8 191 7 16 8 49 15 73 16 67 2
124 40 155 103 29 58 32 94 11 152 -9 27 -12 60 -8 102 5 56 3 69 -27 131 -18
37 -51 88 -75 113 -30 32 -42 52 -40 70 11 118 -126 248 -266 252 l-56 1 5 49
c7 69 -19 128 -79 182 -53 48 -120 76 -180 76 -29 0 -39 5 -44 20 -17 54 -118
100 -183 84 -36 -9 -38 -8 -79 37 -24 26 -65 61 -91 78 -41 26 -58 31 -108 30
-32 0 -82 -6 -111 -13z"/>
</g>
</svg>
